# xmcd CD database file
#
# Track frame offsets:
#	150
#	17820
#	38455
#	58305
#	73707
#	92192
#	109510
#	133987
#	153807
#	170335
#	190137
#	209820
#	229162
#
# Disc length: 3261 seconds
#
# Revision: 1
# Processed by: cddbd v1.5.1PL0 Copyright (c) Steve Scherf et al.
# Submitted via: CDex 1.50Beta5
#
DISCID=b50cbb0d
DTITLE=The Jeff Healey Band - Get Me Some
DYEAR=2000
DGENRE=Blues
TTITLE0=Which One
TTITLE1=Hey Hey
TTITLE2=Love Is The Answer
TTITLE3=My Life Story
TTITLE4=I Tried
TTITLE5=The Damage Is Done
TTITLE6=Feel Better
TTITLE7=Holding On
TTITLE8=I Should Have Told You
TTITLE9=Macon Georgia Blue
TTITLE10=House Is Burning Down
TTITLE11=Runaway Heart
TTITLE12=Rachel's Song
EXTD=YEAR: 2000
EXTT0=
EXTT1=
EXTT2=
EXTT3=
EXTT4=
EXTT5=
EXTT6=
EXTT7=
EXTT8=
EXTT9=
EXTT10=
EXTT11=
EXTT12=
PLAYORDER=
